<svg id="Layer_1" data-name="Layer 1" xmlns="http://www.w3.org/2000/svg" viewBox="0 0 51.94 53.53"><defs><style>.cls-1{fill:#333;}</style></defs><title>arrow</title><path class="cls-1" d="M2.3,26.78C1.6,16.48,8.48,6.12,18.46,3.13A23.53,23.53,0,0,1,44.62,13.36c3.32,5.58,5.59,12.13,4.91,18.67a20.48,20.48,0,0,1-2.31,8.31,19.22,19.22,0,0,1-5,5.58c-8.94,6.82-23.38,7.58-32.26.27a20.09,20.09,0,0,1-5.54-7.13c-1.08-2.37-2.7-6.76,0-8.59a14.38,14.38,0,0,1,4.21-1.61c1.64-.48,3.28-.94,4.93-1.35a80,80,0,0,1,9.8-1.72l-1.12-1.12c.05.8.16,2.94-.84,3.26-1.28.41-1.51-2.57-1.58-3.25-.21-2-.52-4-.61-6s1.86-1.57,3.18-.91c1.72.85,3.37,1.89,5,2.83s3.13,1.67,4.58,2.67c1.06.73,2.82,2,1.68,3.35a33.12,33.12,0,0,1-4.25,3.65,65.7,65.7,0,0,1-8.8,6.51l1.65.67a37.51,37.51,0,0,1-.76-5.14c-.12-1.43-2.37-1.45-2.25,0A42,42,0,0,0,20.06,38a1.14,1.14,0,0,0,1.65.67,84.33,84.33,0,0,0,11.1-8.42c1.56-1.3,3.83-2.75,3.44-5.1-.34-2-2.29-3.34-3.9-4.35-2.34-1.46-4.82-2.74-7.23-4.1-1.7-1-3.68-2.19-5.72-1.78-2.37.48-2.63,2.75-2.42,4.78.25,2.47.19,5.28,1,7.65.62,1.85,2.41,3.56,4.46,2.5,1.81-.94,2.11-3.42,2-5.23,0-.55-.49-1.2-1.12-1.12a85.37,85.37,0,0,0-9.85,1.67,51,51,0,0,0-9,2.68,6.56,6.56,0,0,0-3,2.4,6.77,6.77,0,0,0-.57,4.64,19.67,19.67,0,0,0,3.26,8.19c7.51,11,23.06,12.9,34.55,7.54,5.18-2.42,9.77-6.52,11.79-12a28,28,0,0,0,1.48-9.91A29.82,29.82,0,0,0,49.55,18.4C47.25,12.64,44,7.6,38.7,4.2A26.12,26.12,0,0,0,22.59.09C9.45,1.2-.84,13.71.05,26.78c.1,1.44,2.35,1.45,2.25,0Z"/></svg>