<?xml version="1.0" encoding="utf-8"?>
<!-- Generator: Adobe Illustrator 22.0.1, SVG Export Plug-In . SVG Version: 6.00 Build 0)  -->
<svg version="1.0" id="Layer_1" xmlns="http://www.w3.org/2000/svg" xmlns:xlink="http://www.w3.org/1999/xlink" x="0px" y="0px"
	 viewBox="0 0 105.2 94.3" style="enable-background:new 0 0 105.2 94.3;" xml:space="preserve">
<style type="text/css">
	.st0{fill:#602C86;}
	.st1{fill:#F7D409;}
	.st2{fill:#0A0700;}
	.st3{fill:#F15C22;}
</style>
<g>
	<g>
		<path class="st0" d="M35.8,20.7c0,0-1.9-9,0.3-10c2.3-1,7.4-1.4,8.8,0.8c1.4,2.1,2.1,6.2,1.2,8.3s-1.3,2.6-1.3,2.6l2.8,0.9
			c0,0,4-7.1,1.9-10.9s-3.5-6-7.9-6.8s-7.4,0.3-8.1,1.1c-0.7,0.8-3,3.3-2.9,5.5c0.2,2.3,1,7.1,1.7,7.6L35.8,20.7z"/>
	</g>
	<g>
		<path class="st0" d="M26.1,58.9c0,0-4.3,3.9-3.8,6.5c0.5,2.5,1.7,5,5,6s6.2-0.5,7.1-2s2.3-4.8,1.3-8.5l3.5,0.8c0,0,1.6,6.1,0,9.8
			c-1.6,3.8-7.4,5-10.6,4.9s-8-2.9-9.4-6.3c-1.4-3.4-1.9-6.5,0-8.8c1.8-2.3,3.1-3.7,3.1-3.7L26.1,58.9z"/>
	</g>
	<g>
		<path class="st1" d="M24.2,17.8l8,1.9l15,3.4c0,0,6.7,2.6,7.1,7.2c0.3,4.5-1.2,8.7-0.8,10c0.4,1.2,0.7,2.4,3,3.4
			c2.3,1,19,6.9,19,6.9L80.6,36c0,0,10.9,2.7,13.2,3.7c2.3,0.9,4.3,2,4.3,2L84.9,77.4l-17-5.4l4.6-14.3l-17.9-6.6c0,0-2.4-1.1-3.9,2
			c-1.5,3.1-4.2,7.2-6.8,7.9c-2.6,0.7-7.8-0.2-7.8-0.2L14.3,56L24.2,17.8z"/>
	</g>
	<g>
		<g>
			<g>
				<path class="st2" d="M84.9,78c-0.1,0-0.1,0-0.2,0l-17.2-5.5c-0.1,0-0.2-0.1-0.3-0.3c-0.1-0.1-0.1-0.3,0-0.4l4.7-13.7l-17.1-6.3
					c-0.1,0-1.2-0.6-2.1-0.2c-0.6,0.2-1,0.7-1.3,1.4c-1.6,4.1-4.6,8.9-9.8,9c-5.4,0.1-26.9-5.5-27.9-5.7c-0.2-0.1-0.4-0.3-0.4-0.5
					c0-0.1-0.2-11.7,2.2-22c2.4-10.4,7.8-16.2,8-16.4c0.1-0.1,0.3-0.2,0.5-0.1l23.7,5.3c0.4,0.1,7.2,2.6,7.2,8.7
					c0,1.9-0.3,3.6-0.6,5c-0.6,3.1-0.9,5,1.7,6.4c3.8,2.1,16.5,6.2,19.1,7.1l5-14c0.1-0.2,0.3-0.4,0.6-0.3
					c0.5,0.1,12.2,2.5,17.7,5.7c0.2,0.1,0.3,0.4,0.2,0.6L85.4,77.6C85.4,77.8,85.2,78,84.9,78z M68.4,71.6l16.3,5.2l12.9-34.9
					c-4.9-2.7-14.4-4.8-16.6-5.3l-5,14.1c-0.1,0.3-0.4,0.4-0.6,0.3c-0.6-0.2-15.4-4.9-19.8-7.3c-3.3-1.8-2.8-4.5-2.3-7.5
					c0.3-1.4,0.5-3,0.5-4.8c0-5.4-6.4-7.7-6.4-7.7L24,18.4c-1,1.1-5.5,6.7-7.6,15.7c-2.1,9.2-2.1,19.3-2.1,21.4
					c3,0.8,22.3,5.6,27.2,5.6c4.7-0.1,7.4-4.6,8.9-8.4c0.4-1,1-1.7,1.9-2c1.4-0.5,2.9,0.2,2.9,0.2l17.5,6.4c0.3,0.1,0.4,0.4,0.3,0.7
					L68.4,71.6z"/>
			</g>
			<g>
				<path class="st2" d="M79.6,76.3c-0.1,0-0.1,0-0.2,0c-0.3-0.1-0.4-0.4-0.3-0.7l13.7-36.3c0.1-0.3,0.4-0.4,0.7-0.3
					c0.3,0.1,0.4,0.4,0.3,0.7L80.1,75.9C80,76.1,79.8,76.3,79.6,76.3z"/>
			</g>
			<g>
				<path class="st2" d="M44.8,23c-0.2,0-0.3-0.1-0.4-0.2c-0.2-0.2-0.1-0.6,0.1-0.7c0.9-0.7,2.6-5.2,1.1-9c-0.8-1.9-2.8-2.6-3.9-2.8
					c-2.2-0.4-4.5,0.2-5.5,1.3c-1.6,1.7-0.4,6.9,0.1,8.7c0.1,0.3-0.1,0.6-0.3,0.7c-0.3,0.1-0.6-0.1-0.7-0.3
					c-0.1-0.3-2.2-7.2,0.1-9.7c1.3-1.4,3.9-2.1,6.5-1.6c2.3,0.4,4,1.6,4.7,3.4c1.7,4.1,0,9.1-1.4,10.2C45,23,44.9,23,44.8,23z"/>
			</g>
			<g>
				<path class="st2" d="M47.6,23.7c-0.1,0-0.2,0-0.3-0.1C47,23.3,47,23,47.2,22.8c0.2-0.2,4.4-5.2,1.5-11.6
					c-3.4-7.4-12.1-5.4-13.1-5.1c-1.3,0.3-2.6,1.8-3.4,3.6c-0.7,1.7-1.6,5.3,0.8,9.8c0.1,0.3,0,0.6-0.2,0.7c-0.3,0.1-0.6,0-0.7-0.2
					c-2.7-4.8-1.7-8.8-0.9-10.7c0.9-2.2,2.5-3.8,4.1-4.2c1.1-0.3,10.5-2.5,14.3,5.7c3.2,7-1.6,12.7-1.6,12.7
					C47.8,23.6,47.7,23.7,47.6,23.7z"/>
			</g>
			<g>
				<path class="st2" d="M29.8,72.3c-1.5,0-3.1-0.5-4.6-1.3c-1.9-1.2-3.3-2.8-3.6-4.6c-0.8-3.8,3.9-7.8,4.1-7.9
					c0.2-0.2,0.5-0.2,0.7,0.1c0.2,0.2,0.2,0.6-0.1,0.7c0,0-4.4,3.7-3.8,6.9c0.3,1.5,1.5,2.9,3.1,3.9c1.8,1.1,4,1.5,5.6,0.9
					c1.4-0.4,2.6-1.7,3.4-3.5c1-2.2,1-4.8,0.2-6.4c-0.1-0.3,0-0.6,0.2-0.7c0.3-0.1,0.6,0,0.7,0.2c1,1.9,0.9,4.8-0.2,7.3
					c-0.9,2.1-2.4,3.6-4,4.1C31.1,72.2,30.5,72.3,29.8,72.3z"/>
			</g>
			<g>
				<path class="st2" d="M29.3,77c-1.6,0-3.2-0.2-4.5-0.8c-4.3-1.9-7.5-6.6-7.5-10.9c0-4.4,4.2-7.7,4.4-7.8c0.2-0.2,0.6-0.1,0.7,0.1
					c0.2,0.2,0.1,0.6-0.1,0.7c0,0-4,3.1-4,7c0,3.9,3,8.2,6.9,9.9c3.7,1.6,10.5,0.2,12.3-2c1.9-2.3,2.9-7.1,1-11.7
					c-0.1-0.3,0-0.6,0.3-0.7c0.3-0.1,0.6,0,0.7,0.3c2,5,0.9,10.2-1.2,12.7C37,75.7,33,77,29.3,77z"/>
			</g>
		</g>
		<g>
			<g>
				<path class="st2" d="M23.9,17.8c0,0,1.9,2.8,1.7,8.2c-0.2,5.4-3.9,23.3-6.1,25.9c-2.3,2.7-5.6,3.9-5.6,3.9s0.3-13.7,1.6-19
					S19.7,22.6,23.9,17.8z"/>
				<path class="st2" d="M13.8,56.4c-0.1,0-0.2,0-0.3-0.1c-0.1-0.1-0.2-0.2-0.2-0.4c0-0.6,0.4-13.9,1.6-19.1
					C16,32,19,22.7,23.5,17.5c0.1-0.1,0.2-0.2,0.4-0.2c0.2,0,0.3,0.1,0.4,0.2c0.1,0.1,1.9,3,1.8,8.5c-0.2,5.2-3.8,23.4-6.2,26.3
					c-2.3,2.7-5.7,4-5.8,4.1C13.9,56.4,13.9,56.4,13.8,56.4z M23.8,18.7c-4.1,5.1-6.9,13.8-7.9,18.3c-1,4.5-1.4,15.2-1.5,18.2
					c1.1-0.5,3.2-1.7,4.7-3.5c2.1-2.5,5.8-20.2,6-25.6C25.2,22.3,24.3,19.8,23.8,18.7z"/>
			</g>
			<g>
				<polygon class="st3" points="28,36.8 34.7,35.8 37.7,29.7 40.7,35.8 47.5,36.8 42.6,41.6 43.7,48.3 37.7,45.1 31.6,48.2 
					32.8,41.5 				"/>
			</g>
		</g>
	</g>
</g>
</svg>
