<?xml version="1.0" encoding="utf-8"?>
<!-- Generator: Adobe Illustrator 22.0.1, SVG Export Plug-In . SVG Version: 6.00 Build 0)  -->
<svg version="1.0" id="Layer_1" xmlns="http://www.w3.org/2000/svg" xmlns:xlink="http://www.w3.org/1999/xlink" x="0px" y="0px"
	 viewBox="0 0 105.2 94.3" style="enable-background:new 0 0 105.2 94.3;" xml:space="preserve">
<style type="text/css">
	.st0{fill:#0FB2DE;}
	.st1{fill:#F7D409;}
	.st2{fill:#F15C22;}
	.st3{fill:#72BF44;}
	.st4{fill:#0A0700;}
</style>
<g>
	<g>
		<path class="st0" d="M35.4,65.8l10.1,2.1l5.8,1.5l3.5-1.2l16.7-3l4.9,1.7l7.8,1.9c0,0,0.9,7.4-2.2,9.1c-3.1,1.7-6.9,2.4-8.7,2.5
			s-8-0.2-8-0.2l-1.9-0.6l-5.1,0.2c0,0-14,1-18.2,0.7s-8.3-1.7-9.9-2.7s-4.3-3.1-4.2-4.9c0.1-1.8,0.9-4.5,0.9-4.5L35.4,65.8z"/>
	</g>
	<g>
		<path class="st1" d="M33.2,55.8c0,0-5,4.9-11,5.5c0,0-3.1-3.8-5.5-3.9c-2.4-0.1-2.3,1.7-1.6,2.1s3.6,2.1,2.8,3.1
			c-0.8,0.9-2.8,2.3-3.5,1.6c-0.8-0.7-2.4-2.7-2.1-4.2s0.4-2.4-0.4-2.3S9,59.2,9.3,60.8c0.3,1.6,0.4,3.6,1.5,5c0,0-4.8,1.8-5.6,2.3
			s-3.6,2,0,2.6l0.7,0.1c0,0-0.8,0.3-0.4,0.8c0.4,0.5,2.8,1,2.8,1s0.5,0.7,1.3,0.8c0.8,0.1,6.7-0.8,6.7-0.8l4.9-2.8l1.6-1.2
			c0,0,11.6-2.1,12.6-2.8c1-0.7,6.1-4.9,6.1-4.9v-1L33.2,55.8z"/>
	</g>
	<g>
		<path class="st1" d="M67.2,59.8l8.2-3.9c0,0,2.2,2.4,4.4,3.5s6.9,2.3,6.9,2.3s2.9-4.1,4.8-3.9c1.9,0.2,2.9,0.6,2.7,1.2
			c-0.2,0.6-1.4,1.3-2.1,1.8c-0.7,0.5-1.8,1.9-0.7,2.7c1.1,0.8,2.9,1.2,3.2,1c0.3-0.3,1.7-2,1.8-2.7s-0.7-3-0.3-3.3s2-0.8,2.6,0.2
			c0.6,1,1.1,2.1,1,3.3c-0.1,1.2-1,3.7-1,3.7l5.3,2.7c0,0,3.2,1.9,0.5,2.6h-1.7c0,0,0.8,1.1,0.1,1.3c-0.7,0.2-2.4,0.4-2.4,0.4
			l-1,0.7l-6.3-0.7c0,0-2.1-1-2.3-1c-0.2,0.1-2.2-1.1-2.7-1.5c-0.5-0.4-1.9-1-1.9-1l-0.9-0.9l-2.4,0l-8.2-2.1l-4.1-2.1l-2.2-2
			L67.2,59.8z"/>
	</g>
	<g>
		<path class="st1" d="M44.3,14.1c0,0,2-4.5,6.5-4c4.4,0.5,9.3,1.3,10.3,2.7s0.9,2,1.3,4.7S62.4,28,62.1,28.6s-3,3.9-3,3.9l-0.3,5.4
			c0,0-2,2.5-4.1,2.4s-5.2-0.9-5.5-2.7c-0.3-1.8,0.2-4.4,0.2-4.4s-3.2-1.3-4-3.1s-1.2-6.8-1-8.5C44.6,20,44.3,14.1,44.3,14.1z"/>
	</g>
	<g>
		<polygon class="st2" points="44.5,16.6 62.3,16.5 62.5,23.1 55.7,23.1 54.4,20.4 52.1,20.4 50.8,23.1 44.5,23 		"/>
	</g>
	<g>
		<path class="st3" d="M32.6,55.3c0,0,4.5-13.4,6.1-14.1c1.6-0.8,10.7-3.5,10.7-3.5s2.2,3.1,4.7,2.8c2.5-0.3,5.2-2.8,5.2-2.8
			s10.4,2.9,11,3.8c0.6,1,5.7,14.1,5.7,14.1L67.4,60L67,65.2L66.7,66l-15.7,3.1l-9.2-1.9L41.7,60L32.6,55.3z"/>
	</g>
	<g>
		<g>
			<path class="st4" d="M56,33.9h-5.4c-1.5,0-2.9-0.6-4-1.6l-1.1-1.1c-1.1-1.1-1.6-2.5-1.6-4V15.8c0,0,0-0.1,0-0.1
				c1.1-6.5,8.4-5.9,8.5-5.9c10.1,0.3,10.6,5,10.6,5.2l0,11.7c0,1.4-0.5,2.7-1.4,3.7L60.2,32C59.1,33.2,57.6,33.9,56,33.9z
				 M44.9,15.9v11.3c0,1.2,0.5,2.4,1.3,3.2l1.1,1.1c0.9,0.9,2,1.3,3.2,1.3H56c1.3,0,2.5-0.6,3.4-1.5l1.4-1.5
				c0.8-0.8,1.2-1.9,1.2-3.1V15.1l0,0c0,0-0.5-3.9-9.7-4.2C52,10.8,45.8,10.3,44.9,15.9z"/>
		</g>
		<g>
			<path class="st4" d="M44.3,25.4c0,0-3.8-0.9-3.4-5.6c0,0-4-5.5-1.9-9.5s8.9-8,8.9-8s-0.2,2,0.9,2.9c0,0-0.5-2.2,0.7-2.9
				c0,0,0.8,2.5,2.1,2.8c0,0-0.7-1.6-0.3-2.8c0,0,5.9,0.7,9.5,4.8c0,0,4.5,0,5.6,3.3s2.4,13.1-4,15.7V15.1c0,0-0.4-3.8-7-4.5
				s-9.4,0.9-10.5,3.3C43.9,16.3,44.3,25.4,44.3,25.4z"/>
			<path class="st4" d="M62.4,26.5c-0.1,0-0.2,0-0.3-0.1c-0.1-0.1-0.2-0.3-0.2-0.4V15.1c0-0.1-0.5-3.3-6.6-4c-5.6-0.6-8.8,0.4-9.9,3
				c-0.8,1.9-0.7,8.8-0.6,11.3c0,0.2-0.1,0.3-0.2,0.4c-0.1,0.1-0.3,0.1-0.5,0.1c0,0-4.2-1-3.8-5.9c-0.7-1-3.9-6-1.8-9.9
				c2.2-4.1,8.8-8,9.1-8.2c0.2-0.1,0.4-0.1,0.6,0c0.2,0.1,0.3,0.3,0.2,0.5c0,0,0,0.2,0,0.4c0.2-0.4,0.4-0.7,0.8-0.9
				c0.1-0.1,0.3-0.1,0.4,0C49.9,1.9,50,2,50.1,2.1c0.1,0.4,0.4,1,0.7,1.4c-0.1-0.5,0-1,0.1-1.5c0.1-0.2,0.3-0.4,0.6-0.3
				c0.2,0,6,0.8,9.7,4.8c1,0.1,4.8,0.5,5.8,3.6c1.3,4,2.1,13.8-4.3,16.3C62.6,26.5,62.5,26.5,62.4,26.5z M52.5,9.9
				c0.9,0,1.9,0.1,3,0.2c7,0.7,7.5,4.8,7.5,4.9l0,10.1c5.5-3,3.7-12.4,3-14.7c-0.9-2.8-5-2.9-5.1-2.9c-0.1,0-0.3-0.1-0.4-0.2
				c-2.9-3.2-7.3-4.2-8.7-4.5c-0.1,0.7,0.2,1.6,0.4,2c0.1,0.2,0.1,0.4-0.1,0.5c-0.1,0.2-0.3,0.2-0.5,0.2c-1-0.3-1.7-1.4-2.1-2.3
				c-0.2,0.6-0.1,1.4,0,1.7c0,0.2,0,0.4-0.2,0.6c-0.2,0.1-0.4,0.1-0.6,0c-0.8-0.6-1-1.6-1.1-2.3c-1.8,1.2-6.3,4.3-7.9,7.3
				c-2,3.7,1.8,8.9,1.8,9c0.1,0.1,0.1,0.2,0.1,0.4c-0.3,3,1.3,4.3,2.3,4.7c-0.1-2.3-0.2-8.9,0.7-10.9C45.5,11.2,48.2,9.9,52.5,9.9z"
				/>
		</g>
		<g>
			<path class="st4" d="M62.4,23.6h-6.8c-0.2,0-0.4-0.1-0.5-0.3l-1.1-2.4h-1.5l-1.2,2.4c-0.1,0.2-0.3,0.3-0.5,0.3h-6.6
				c-0.3,0-0.5-0.2-0.5-0.5c0-0.3,0.2-0.5,0.5-0.5h6.2l1.2-2.4c0.1-0.2,0.3-0.3,0.5-0.3h2.2c0.2,0,0.4,0.1,0.5,0.3l1.1,2.4h5.9v-5.4
				H44c-0.3,0-0.5-0.2-0.5-0.5c0-0.3,0.2-0.5,0.5-0.5h18.4c0.3,0,0.5,0.2,0.5,0.5v6.5C63,23.4,62.7,23.6,62.4,23.6z"/>
		</g>
		<g>
			<path class="st4" d="M53.2,29.6c-2.3,0-3.7-1.7-3.7-1.7c-0.2-0.2-0.1-0.6,0.1-0.7c0.2-0.2,0.6-0.1,0.7,0.1c0.1,0.1,2.4,2.9,6.1,0
				c0.2-0.2,0.6-0.1,0.7,0.1c0.2,0.2,0.1,0.6-0.1,0.7C55.6,29.2,54.3,29.6,53.2,29.6z"/>
		</g>
		<g>
			<path class="st4" d="M54,41c-0.2,0-0.5,0-0.7-0.1c-3.4-0.5-4.4-3-4.4-3.1c0-0.1,0-0.1,0-0.2v-4.3c0-0.3,0.2-0.5,0.5-0.5
				c0.3,0,0.5,0.2,0.5,0.5v4.2c0.2,0.4,1,2,3.5,2.4c2.5,0.3,4.4-1.6,4.9-2.1v-5.3c0-0.3,0.2-0.5,0.5-0.5s0.5,0.2,0.5,0.5v5.4
				c0,0.1,0,0.2-0.1,0.3C59.1,38.4,57,41,54,41z"/>
		</g>
		<g>
			<path class="st4" d="M41.5,60.5c-0.1,0-0.2,0-0.2-0.1l-9-4.5c-0.2-0.1-0.3-0.4-0.3-0.6c0.5-1.3,4.5-13.1,6-14.5
				c1.5-1.4,10.1-3.5,11.1-3.8c0.3-0.1,0.6,0.1,0.6,0.4c0.1,0.3-0.1,0.6-0.4,0.6c-3.7,0.9-9.7,2.6-10.7,3.5c-1,0.9-3.9,8.6-5.6,13.6
				l8.5,4.3c0.3,0.1,0.4,0.4,0.2,0.7C41.9,60.4,41.7,60.5,41.5,60.5z"/>
		</g>
		<g>
			<path class="st4" d="M67.1,60.5c-0.2,0-0.4-0.1-0.5-0.3c-0.1-0.3,0-0.6,0.2-0.7l8.5-4.3c-1.7-5-4.6-12.7-5.6-13.6
				c-1-0.9-6.9-2.6-10.7-3.5c-0.3-0.1-0.5-0.4-0.4-0.6c0.1-0.3,0.4-0.5,0.6-0.4c1,0.2,9.6,2.4,11.1,3.8c1.5,1.4,5.6,13.1,6,14.5
				c0.1,0.2,0,0.5-0.3,0.6l-9,4.5C67.3,60.5,67.2,60.5,67.1,60.5z"/>
		</g>
		<g>
			<path class="st4" d="M41.9,67.4c-0.3,0-0.5-0.2-0.5-0.5l-0.4-17c0-0.3,0.2-0.5,0.5-0.5c0.3,0,0.5,0.2,0.5,0.5l0.4,17
				C42.4,67.2,42.2,67.4,41.9,67.4C41.9,67.4,41.9,67.4,41.9,67.4z"/>
		</g>
		<g>
			<path class="st4" d="M67,66.3c-0.3,0-0.5-0.2-0.5-0.5V49.2c0-0.3,0.2-0.5,0.5-0.5c0.3,0,0.5,0.2,0.5,0.5v16.6
				C67.6,66.1,67.3,66.3,67,66.3z"/>
		</g>
		<g>
			<g>
				<path class="st4" d="M4.6,71.1c-0.5,0-1-0.1-1.4-0.3c-0.3-0.2-0.5-0.5-0.6-0.9c-0.2-1.6,4.1-3.4,7.1-4.5c-0.5-0.8-1.2-2.4-1-4.7
					c0.2-2,1-2.8,1.7-3.2c0.8-0.5,1.7-0.4,2.2-0.2c1,0.4,0.8,1.3,0.6,2c-0.1,0.3-0.2,0.7-0.3,1.2c-0.2,1.4,1.2,3.1,1.8,3.3
					c0.3,0.1,1.6-0.3,2.3-1c0.3-0.3,0.4-0.6,0.4-0.9c-0.2-0.7-1.1-1.1-1.7-1.5c-0.4-0.2-0.8-0.4-1-0.6c-0.5-0.7-0.7-1.3-0.4-1.8
					c0.3-0.7,1.1-1,2.4-1.1c2.7-0.2,4.9,2.9,5.6,3.9c6.3-0.7,10.6-5.3,10.6-5.3c0.2-0.2,0.5-0.2,0.7,0c0.2,0.2,0.2,0.5,0,0.7
					c-0.2,0.2-4.7,5.1-11.6,5.7c-0.2,0-0.4-0.1-0.5-0.3c0,0-2.2-3.9-4.7-3.7c-1,0.1-1.5,0.3-1.6,0.5c-0.1,0.2,0,0.5,0.3,0.8
					c0.1,0.1,0.4,0.2,0.6,0.3c0.8,0.4,2,0.9,2.3,2.2c0.1,0.4,0.1,1.1-0.6,1.9c-0.9,0.9-2.4,1.5-3.3,1.3c-1.2-0.3-2.9-2.6-2.6-4.5
					c0.1-0.5,0.2-0.9,0.3-1.3c0.1-0.3,0.2-0.6,0.1-0.7l0,0c0,0,0,0-0.2-0.1c-0.3-0.1-0.8-0.2-1.3,0.1c-0.6,0.4-1,1.2-1.2,2.4
					c-0.3,2.8,1.1,4.4,1.2,4.4c0.1,0.1,0.2,0.3,0.1,0.5c0,0.2-0.2,0.3-0.3,0.4c-3.7,1.3-7,3-7,3.7c0,0,0,0.1,0.1,0.1
					c0.6,0.4,3.1-0.1,4.3-0.5c0.5-0.2,4.4-1.2,4.9-1.3c0.3-0.1,0.6,0.1,0.6,0.4c0.1,0.3-0.1,0.6-0.4,0.6c-1.7,0.5-4.5,1.2-4.8,1.3
					C8.4,70.4,6.3,71.1,4.6,71.1z"/>
			</g>
			<g>
				<path class="st4" d="M9.6,73.7c-0.9,0-1.5-0.2-1.8-0.6c-0.1-0.2-0.1-0.4-0.1-0.7c0.4-1,3.7-2.1,5.7-2.7c0.3-0.1,0.6,0.1,0.6,0.4
					c0.1,0.3-0.1,0.6-0.4,0.6c-1.9,0.6-4.1,1.4-4.8,1.9c0.9,0.2,3.7-0.3,5.2-0.5c0.7-0.1,1.3-0.2,1.9-0.3c2.3-0.3,6.4-3.6,6.5-3.7
					c0.1-0.1,0.2-0.1,0.3-0.1c0.1,0,15-1,18.2-8c0.1-0.3,0.4-0.4,0.7-0.3c0.3,0.1,0.4,0.4,0.3,0.7c-3.3,7.2-17.2,8.5-19,8.6
					c-0.8,0.6-4.5,3.5-6.8,3.8c-0.5,0.1-1.2,0.2-1.8,0.3C12.2,73.5,10.7,73.7,9.6,73.7z"/>
			</g>
			<g>
				<path class="st4" d="M8.3,73C8.2,73,8.2,73,8.3,73c-2.1-0.1-3.1-0.5-3.3-1.3c-0.2-0.8,0.9-1.5,1.1-1.6c0.3-0.1,0.6-0.1,0.7,0.2
					c0.1,0.3,0.1,0.6-0.2,0.7c-0.3,0.1-0.5,0.4-0.6,0.5c0.1,0,0.4,0.3,2.3,0.4c0.3,0,0.5,0.3,0.5,0.6C8.8,72.8,8.5,73,8.3,73z"/>
			</g>
			<g>
				<path class="st4" d="M14.7,71.8c-0.2,0-0.4-0.1-0.5-0.3c-0.4-0.7-2.4-4.2-2.5-4.4c-0.1-0.3,0-0.6,0.2-0.7c0.3-0.1,0.6,0,0.7,0.2
					c0.1,0.2,1.5,2.7,2.5,4.3c0.1,0.2,0.1,0.6-0.2,0.7C14.9,71.7,14.8,71.8,14.7,71.8z"/>
			</g>
		</g>
		<g>
			<g>
				<path class="st4" d="M104.2,71.4c-1.6,0-3.7-0.7-3.8-0.7c-0.3-0.1-3.1-0.8-4.8-1.3c-0.3-0.1-0.4-0.4-0.4-0.6
					c0.1-0.3,0.4-0.4,0.6-0.4c0.4,0.1,4.4,1.2,4.9,1.3c1.1,0.4,3.6,1,4.3,0.5c0.1,0,0.1-0.1,0.1-0.1c-0.1-0.6-3.4-2.4-7-3.7
					c-0.2-0.1-0.3-0.2-0.3-0.4c0-0.2,0-0.4,0.1-0.5c0.1-0.1,1.5-1.6,1.2-4.4c-0.1-1.2-0.5-2.1-1.1-2.4c-0.5-0.3-1-0.2-1.3-0.1
					c-0.1,0.1-0.2,0.1-0.2,0.1c0,0.1,0.1,0.4,0.1,0.7c0.1,0.3,0.2,0.8,0.3,1.3c0.3,1.9-1.4,4.2-2.6,4.5c-0.8,0.2-2.4-0.4-3.3-1.3
					c-0.7-0.7-0.7-1.4-0.6-1.9c0.3-1.2,1.5-1.8,2.3-2.2c0.2-0.1,0.6-0.3,0.6-0.3c0.2-0.3,0.4-0.6,0.3-0.8c-0.1-0.2-0.5-0.4-1.6-0.5
					c-0.1,0-0.1,0-0.2,0c-2.5,0-4.5,3.6-4.6,3.7c-0.1,0.2-0.3,0.3-0.5,0.3c-6.9-0.6-11.4-5.5-11.6-5.7c-0.2-0.2-0.2-0.5,0-0.7
					c0.2-0.2,0.5-0.2,0.7,0c0,0,4.3,4.6,10.6,5.3c0.6-1,2.8-4.1,5.6-3.9c1.4,0.1,2.1,0.5,2.4,1.1c0.2,0.5,0.1,1.2-0.4,1.8
					c-0.2,0.3-0.6,0.4-1,0.6c-0.7,0.3-1.6,0.7-1.7,1.5c-0.1,0.3,0.1,0.6,0.4,0.9c0.7,0.7,1.9,1.1,2.3,1c0.6-0.1,2-1.9,1.8-3.3
					c-0.1-0.5-0.2-0.8-0.3-1.2c-0.2-0.7-0.4-1.6,0.6-2c0.5-0.2,1.4-0.3,2.2,0.2c0.6,0.4,1.5,1.2,1.7,3.2c0.2,2.3-0.5,3.8-1,4.7
					c3,1.1,7.2,2.9,7.1,4.5c0,0.4-0.2,0.7-0.6,0.9C105.3,71.4,104.8,71.4,104.2,71.4z"/>
			</g>
			<g>
				<path class="st4" d="M99.2,74c-1.1,0-2.6-0.2-4.7-0.6c-0.7-0.1-1.3-0.2-1.8-0.3c-2.4-0.3-6.1-3.2-6.8-3.8
					c-1.8-0.1-15.6-1.4-19-8.6c-0.1-0.3,0-0.6,0.3-0.7c0.3-0.1,0.6,0,0.7,0.3c3.2,7,18.1,8,18.2,8c0.1,0,0.2,0,0.3,0.1
					c0,0,4.2,3.4,6.5,3.7c0.5,0.1,1.2,0.2,1.9,0.3c1.4,0.2,4.2,0.7,5.1,0.5c-0.7-0.5-2.9-1.3-4.8-1.9c-0.3-0.1-0.4-0.4-0.4-0.6
					c0.1-0.3,0.4-0.4,0.6-0.4c2,0.6,5.3,1.7,5.7,2.7c0.1,0.2,0.1,0.5-0.1,0.7C100.7,73.9,100.2,74,99.2,74z M100.1,73.1L100.1,73.1
					L100.1,73.1z"/>
			</g>
			<g>
				<path class="st4" d="M100.6,73.4c-0.3,0-0.5-0.2-0.5-0.5c0-0.3,0.2-0.5,0.5-0.6c2-0.1,2.3-0.5,2.3-0.5c0,0-0.3-0.3-0.6-0.4
					c-0.3-0.1-0.3-0.5-0.2-0.7c0.1-0.2,0.5-0.3,0.7-0.2c0.2,0.1,1.3,0.8,1.1,1.6C103.7,72.8,102.7,73.2,100.6,73.4
					C100.6,73.4,100.6,73.4,100.6,73.4z"/>
			</g>
			<g>
				<path class="st4" d="M94.1,72.1c-0.1,0-0.2,0-0.3-0.1c-0.2-0.1-0.3-0.5-0.2-0.7c1-1.6,2.4-4.2,2.5-4.3c0.1-0.3,0.4-0.4,0.7-0.2
					c0.3,0.1,0.4,0.4,0.2,0.7c-0.1,0.2-2.1,3.7-2.5,4.4C94.5,72,94.3,72.1,94.1,72.1z"/>
			</g>
		</g>
		<g>
			<path class="st4" d="M44.7,81.2c-4.6,0-9.1-0.4-11.7-1.5c-6.6-2.9-9.1-4.8-6.5-11.8c0.1-0.2,0.2-0.3,0.4-0.3
				c0.1,0,5.9-1.3,7.8-2.2c0.1,0,0.2-0.1,0.3,0c0.1,0,13.6,2,24,6.3c0.2,0.1,0.3,0.3,0.3,0.5c-0.2,1.6-0.4,6.2,0.4,7.5
				c0.1,0.2,0.1,0.3,0,0.5c-0.1,0.2-0.2,0.3-0.4,0.3C58.8,80.4,51.7,81.2,44.7,81.2z M27.4,68.5c-2,5.8-0.6,7.3,6.1,10.3
				c5.7,2.5,21.6,1,25.1,0.6c-0.6-2-0.4-5.7-0.2-7c-9.7-3.9-21.8-5.8-23.3-6C33.1,67.2,28.6,68.2,27.4,68.5z"/>
		</g>
		<g>
			<path class="st4" d="M58.8,72c0,0,11-3.9,14.9-1.4s1.6,7.6-1,8.1c-2.6,0.5-13.4,1.1-13.4,1.1S58.4,74.8,58.8,72z"/>
			<path class="st4" d="M59.2,80.3c-0.3,0-0.5-0.2-0.5-0.4c0-0.2-0.9-5.1-0.4-8c0-0.2,0.2-0.3,0.3-0.4c0.5-0.2,11.3-3.9,15.3-1.4
				c1.8,1.1,2.6,3,2.2,5.1c-0.4,2-1.8,3.7-3.4,4C70.1,79.8,59.7,80.3,59.2,80.3C59.3,80.3,59.2,80.3,59.2,80.3z M59.3,72.4
				c-0.3,2.2,0.2,5.6,0.4,6.8c2.1-0.1,10.6-0.6,12.9-1c1.2-0.2,2.3-1.6,2.6-3.2c0.2-1,0.2-2.7-1.7-4C70.2,69,61.1,71.8,59.3,72.4z"
				/>
		</g>
		<g>
			<path class="st4" d="M50.4,69.7c-0.2,0-0.5-0.2-0.5-0.4c-0.1-0.3,0.1-0.6,0.4-0.6c0.7-0.1,17.8-3.6,21.1-3.9
				c0.3,0,0.5,0.2,0.6,0.5c0,0.3-0.2,0.5-0.5,0.6c-3.3,0.3-20.9,3.9-21,3.9C50.5,69.7,50.4,69.7,50.4,69.7z"/>
		</g>
		<g>
			<path class="st4" d="M68.8,81c-2.5,0-5.4-0.1-7-0.7c-0.3-0.1-0.4-0.4-0.3-0.7c0.1-0.3,0.4-0.4,0.7-0.3c2.7,1,10.6,0.5,10.6,0.5
				c4.9,0.1,8.3-1.1,10-3.4c2.3-3.1,1-7.4,1-7.5c-0.1-0.3,0.1-0.6,0.3-0.7c0.3-0.1,0.6,0.1,0.7,0.3c0.1,0.2,1.5,4.8-1.2,8.4
				c-2,2.6-5.6,3.9-10.8,3.8C72.6,80.9,70.9,81,68.8,81z"/>
		</g>
	</g>
</g>
</svg>
