<svg id="Layer_1" data-name="Layer 1" xmlns="http://www.w3.org/2000/svg" viewBox="0 0 21 48.32"><defs><style>.cls-1{fill:#333;}</style></defs><title>SP-website-design-06</title><path class="cls-1" d="M11,11a97.46,97.46,0,0,0,9.72-9.68L19.44.76c.17,7.56-.08,15.14-.13,22.7l-.08,11.73,0,6a45.59,45.59,0,0,1-.2,6.21l1.25-.33c-1.7-1.52-3.35-3.08-4.94-4.7l-2.87-2.93a22.2,22.2,0,0,1-2.79-2.93c-.85-1.26-.56-3.55-.6-5,0-1.79,0-3.58,0-5.37,0-3.62.11-7.24,0-10.86a.76.76,0,0,0-.75-.75c-2.44.06-4.87.09-7.31.15a.76.76,0,0,0-.75.75l0,10.73c0,1.79,0,3.58,0,5.36,0,1.63-.29,3.28-.29,4.9a.76.76,0,0,0,.75.75H3.63a.75.75,0,0,0,0-1.5H.75l.75.75c0-1.62.28-3.26.29-4.9,0-1.79,0-3.58,0-5.36l0-10.73L1,16.13C3.41,16.07,5.85,16,8.29,16l-.75-.75c.09,3.78,0,7.57,0,11.35,0,1.95,0,3.9.07,5.85,0,1.29-.18,3.19.45,4.37a15,15,0,0,0,2.72,3l3.15,3.21q2.57,2.62,5.3,5.06c.37.33,1.17.27,1.25-.33.55-3.79.26-7.78.28-11.6L20.81,24c.05-7.72.3-15.47.13-23.2,0-.6-.85-1.06-1.28-.53A97.46,97.46,0,0,1,9.94,9.91c-.72.65.35,1.71,1.06,1.06Z"/></svg>